HIERARCHY
ROOT hip
{
  OFFSET -152.515 92.2133 5.53917
  CHANNELS 6 Xposition Yposition Zposition Zrotation Xrotation Yrotation
  JOINT abdomen
  {
    OFFSET 0 20.6881 -0.73152
    CHANNELS 3 Zrotation Xrotation Yrotation
    JOINT chest
    {
      OFFSET 0 11.7043 -0.48768
      CHANNELS 3 Zrotation Xrotation Yrotation
      JOINT neck
      {
        OFFSET 0 22.1894 -2.19456
        CHANNELS 3 Zrotation Xrotation Yrotation
        JOINT head
        {
          OFFSET -0.24384 7.07133 1.2192
          CHANNELS 3 Zrotation Xrotation Yrotation
          JOINT leftEye
          {
            OFFSET 4.14528 8.04674 8.04672
            CHANNELS 3 Zrotation Xrotation Yrotation
            End Site
            {
              OFFSET 1 0 0
            }
          }
          JOINT rightEye
          {
            OFFSET -3.6576 8.04674 8.04672
            CHANNELS 3 Zrotation Xrotation Yrotation
            End Site
            {
              OFFSET 1 0 0
            }
          }
        }
      }
      JOINT rCollar
      {
        OFFSET -2.68224 19.2634 -4.8768
        CHANNELS 3 Zrotation Xrotation Yrotation
        JOINT rShldr
        {
          OFFSET -8.77824 -1.95073 1.46304
          CHANNELS 3 Zrotation Xrotation Yrotation
          JOINT rForeArm
          {
            OFFSET -28.1742 -1.7115 0.48768
            CHANNELS 3 Zrotation Xrotation Yrotation
            JOINT rHand
            {
              OFFSET -22.5879 0.773209 7.07136
              CHANNELS 3 Zrotation Xrotation Yrotation
              JOINT rThumb1
              {
                OFFSET -1.2192 -0.487915 3.41376
                CHANNELS 3 Zrotation Xrotation Yrotation
                JOINT rThumb2
                {
                  OFFSET -3.37035 -0.52449 3.41376
                  CHANNELS 3 Zrotation Xrotation Yrotation
                  End Site
                  {
                    OFFSET -1.78271 -1.18214 1.43049
                  }
                }
              }
              JOINT rIndex1
              {
                OFFSET -7.75947 0.938293 5.60832
                CHANNELS 3 Zrotation Xrotation Yrotation
                JOINT rIndex2
                {
                  OFFSET -2.54057 -0.884171 1.56538
                  CHANNELS 3 Zrotation Xrotation Yrotation
                  End Site
                  {
                    OFFSET -1.62519 -0.234802 1.16502
                  }
                }
              }
              JOINT rMid1
              {
                OFFSET -8.24714 1.18213 3.41376
                CHANNELS 3 Zrotation Xrotation Yrotation
                JOINT rMid2
                {
                  OFFSET -3.10165 -0.590103 1.0647
                  CHANNELS 3 Zrotation Xrotation Yrotation
                  End Site
                  {
                    OFFSET -2.48547 -0.328903 0.83742
                  }
                }
              }
              JOINT rRing1
              {
                OFFSET -8.82822 0.546677 1.51678
                CHANNELS 3 Zrotation Xrotation Yrotation
                JOINT rRing2
                {
                  OFFSET -2.60934 -0.819778 -0.0198488
                  CHANNELS 3 Zrotation Xrotation Yrotation
                  End Site
                  {
                    OFFSET -2.33842 -0.294052 0.168128
                  }
                }
              }
              JOINT rPinky1
              {
                OFFSET -8.27202 -0.0477905 -0.4584
                CHANNELS 3 Zrotation Xrotation Yrotation
                JOINT rPinky2
                {
                  OFFSET -1.82734 -0.647385 -0.700984
                  CHANNELS 3 Zrotation Xrotation Yrotation
                  End Site
                  {
                    OFFSET -1.69225 -0.51767 -0.607171
                  }
                }
              }
            }
          }
        }
      }
      JOINT lCollar
      {
        OFFSET 2.68224 19.2634 -4.8768
        CHANNELS 3 Zrotation Xrotation Yrotation
        JOINT lShldr
        {
          OFFSET 8.77824 -1.95073 1.46304
          CHANNELS 3 Zrotation Xrotation Yrotation
          JOINT lForeArm
          {
            OFFSET 28.1742 -1.7115 0.48768
            CHANNELS 3 Zrotation Xrotation Yrotation
            JOINT lHand
            {
              OFFSET 22.5879 0.773209 7.07136
              CHANNELS 3 Zrotation Xrotation Yrotation
              JOINT lThumb1
              {
                OFFSET 1.2192 -0.487915 3.41376
                CHANNELS 3 Zrotation Xrotation Yrotation
                JOINT lThumb2
                {
                  OFFSET 3.37035 -0.52449 3.41376
                  CHANNELS 3 Zrotation Xrotation Yrotation
                  End Site
                  {
                    OFFSET 1.78271 -1.18214 1.43049
                  }
                }
              }
              JOINT lIndex1
              {
                OFFSET 7.75947 0.938293 5.60832
                CHANNELS 3 Zrotation Xrotation Yrotation
                JOINT lIndex2
                {
                  OFFSET 2.54057 -0.884171 1.56538
                  CHANNELS 3 Zrotation Xrotation Yrotation
                  End Site
                  {
                    OFFSET 1.62519 -0.234802 1.16502
                  }
                }
              }
              JOINT lMid1
              {
                OFFSET 8.24714 1.18213 3.41376
                CHANNELS 3 Zrotation Xrotation Yrotation
                JOINT lMid2
                {
                  OFFSET 3.10165 -0.590103 1.0647
                  CHANNELS 3 Zrotation Xrotation Yrotation
                  End Site
                  {
                    OFFSET 2.48547 -0.328903 0.83742
                  }
                }
              }
              JOINT lRing1
              {
                OFFSET 8.82822 0.546677 1.51678
                CHANNELS 3 Zrotation Xrotation Yrotation
                JOINT lRing2
                {
                  OFFSET 2.60934 -0.819778 -0.0198488
                  CHANNELS 3 Zrotation Xrotation Yrotation
                  End Site
                  {
                    OFFSET 2.33842 -0.294052 0.168128
                  }
                }
              }
              JOINT lPinky1
              {
                OFFSET 8.27202 -0.0477905 -0.4584
                CHANNELS 3 Zrotation Xrotation Yrotation
                JOINT lPinky2
                {
                  OFFSET 1.82734 -0.647385 -0.700984
                  CHANNELS 3 Zrotation Xrotation Yrotation
                  End Site
                  {
                    OFFSET 1.69225 -0.51767 -0.607171
                  }
                }
              }
            }
          }
        }
      }
    }
  }
  JOINT rButtock
  {
    OFFSET -8.77824 4.35084 1.2192
    CHANNELS 3 Zrotation Xrotation Yrotation
    JOINT rThigh
    {
      OFFSET 0 -1.70687 -2.19456
      CHANNELS 3 Zrotation Xrotation Yrotation
      JOINT rShin
      {
        OFFSET 0 -36.8199 0.73152
        CHANNELS 3 Zrotation Xrotation Yrotation
        JOINT rFoot
        {
          OFFSET 0.73152 -45.1104 -5.12064
          CHANNELS 3 Zrotation Xrotation Yrotation
          End Site
          {
            OFFSET -1.1221 -3.69964 12.103
          }
        }
      }
    }
  }
  JOINT lButtock
  {
    OFFSET 8.77824 4.35084 1.2192
    CHANNELS 3 Zrotation Xrotation Yrotation
    JOINT lThigh
    {
      OFFSET 0 -1.70687 -2.19456
      CHANNELS 3 Zrotation Xrotation Yrotation
      JOINT lShin
      {
        OFFSET 0 -36.8199 0.73152
        CHANNELS 3 Zrotation Xrotation Yrotation
        JOINT lFoot
        {
          OFFSET -0.73152 -45.1104 -5.12064
          CHANNELS 3 Zrotation Xrotation Yrotation
          End Site
          {
            OFFSET 1.1221 -3.69964 12.103
          }
        }
      }
    }
  }
}
MOTION
Frames:	5
Frame Time:	0.00833333
174.38 84.8561 23.7152 -0.330525 -0.0106498 0.00540089 0.435983 -0.0238511 0.0128205 0.121279 -0.0396246 0.02105 -1.21699e-015 7.95139e-016 -1.98785e-016 -3.60297e-015 9.54166e-015 -5.69953e-016 -0 0 0 -0 0 0 -5.4786e-016 2.44598e-017 0 -1.03915e-014 1.32937e-015 -9.93923e-016 -2.03357e-013 9.74045e-014 -3.81667e-014 -2.39397e-012 1.00983e-013 -4.13472e-013 -5.63843e-012 4.21684e-013 -9.47805e-013 -9.7492e-012 7.21986e-013 -1.65548e-012 -5.63157e-012 4.21424e-013 -9.57347e-013 7.73091 5.47488 0.417314 -5.63878e-012 4.21424e-013 -9.54166e-013 2.90554 0.965183 0.102902 -5.62986e-012 4.2192e-013 -9.57347e-013 10.2786 0.731801 0.0259123 -5.64171e-012 4.24206e-013 -9.57347e-013 2.22167 -0.733487 -0.20892 -6.44888e-016 2.48481e-017 -1.98785e-016 -1.38706e-014 1.14922e-015 -2.98177e-015 -2.11755e-013 -3.12092e-014 -4.45278e-014 -2.38542e-012 2.22738e-013 -4.0393e-013 -5.63216e-012 4.0762e-013 -9.63708e-013 -9.71182e-012 6.99722e-013 -1.65548e-012 -5.63555e-012 4.08304e-013 -9.57347e-013 -7.73091 5.47488 -0.417314 -5.63122e-012 4.0731e-013 -9.66889e-013 -2.90554 0.965183 -0.102902 -5.63554e-012 4.07707e-013 -9.58937e-013 -10.2786 0.731801 -0.0259123 -5.62461e-012 4.10292e-013 -9.60528e-013 -2.22167 -0.733487 0.20892 -2.03217e-016 0 -3.88251e-019 0.651715 -4.71112 -0.0694662 -0.00084221 2.99812 0.00383558 -0.3261 1.72322 0.0697516 2.03217e-016 0 3.88251e-019 0.0328755 -2.68023 0.0231661 0.00579689 -0.679792 0.0505589 0.296432 3.37022 -0.0967189 
165.768 78.2077 14.5339 -9.39618 23.8704 -23.9041 5.59445 1.9949 1.62589 -0.123384 -4.75271 0.508409 -0.740732 -0.775758 -0.0346469 -4.1348 1.43733 0.0795532 -0 0 0 -0 0 0 -1.36326e-014 -2.47661e-013 2.7143e-014 15.7013 12.9678 -0.741771 -8.44125 -5.30667 11.3307 0.00904814 -2.1335 -0.299125 2.4045e-010 -3.9019e-011 -3.54696e-010 4.19184e-010 -6.73567e-011 -6.11202e-010 2.40455e-010 -3.90204e-011 -3.54707e-010 7.73091 5.47488 0.417314 2.4045e-010 -3.90196e-011 -3.54701e-010 2.90554 0.965183 0.102902 2.40457e-010 -3.9018e-011 -3.54704e-010 10.2786 0.731801 0.0259123 2.40447e-010 -3.90175e-011 -3.54702e-010 2.22167 -0.733487 -0.20892 -1.36981e-014 -2.4765e-013 2.69648e-014 -20.8632 14.5669 5.6793 17.7684 -15.3062 -15.0562 -0.00565517 1.95037 -0.273682 -4.74035e-010 2.62114e-011 7.00154e-010 -8.16833e-010 4.55028e-011 1.21186e-009 -4.74038e-010 2.62125e-011 7.00161e-010 -7.73091 5.47488 -0.417314 -4.74035e-010 2.62115e-011 7.00152e-010 -2.90554 0.965183 -0.102902 -4.74038e-010 2.62115e-011 7.00159e-010 -10.2786 0.731801 -0.0259123 -4.74029e-010 2.62137e-011 7.00156e-010 -2.22167 -0.733487 0.20892 -2.03217e-016 0 -3.88251e-019 6.07285 -15.5606 2.61288 -0.125259 14.7406 -0.0187065 -0.0645108 -5.58625 -0.358697 2.03217e-016 0 3.88251e-019 1.21632 -14.6226 1.30003 -0.451336 23.3367 -0.238276 0.224211 5.63825 4.81693 
162.254 76.989 12.7769 3.3322 34.6028 -58.7981 10.9875 4.1286 3.29622 -0.353049 -9.70005 1.01616 -1.51937 -1.59781 -0.0504196 -8.53712 2.97746 0.204472 -0 0 0 -0 0 0 -2.75784e-014 -5.28769e-013 5.88558e-014 32.7749 26.7951 -1.72774 -14.8749 -9.92703 23.4413 -0.00572244 -4.35239 -0.611643 5.34484e-010 -8.57664e-011 -7.82017e-010 9.31668e-010 -1.48058e-010 -1.34749e-009 5.34487e-010 -8.57689e-011 -7.82029e-010 7.73091 5.47488 0.417314 5.34485e-010 -8.57674e-011 -7.82021e-010 2.90554 0.965183 0.102902 5.3449e-010 -8.57644e-011 -7.82023e-010 10.2786 0.731801 0.0259123 5.34481e-010 -8.57659e-011 -7.8202e-010 2.22167 -0.733487 -0.20892 -2.76111e-014 -5.28744e-013 5.87036e-014 -46.3546 29.5822 12.6894 27.2516 -27.7694 -34.2298 0.0103289 4.12854 -0.580528 -1.00249e-009 7.94135e-011 1.51029e-009 -1.72759e-009 1.37727e-010 2.61401e-009 -1.00249e-009 7.94152e-011 1.5103e-009 -7.73091 5.47488 -0.417314 -1.00249e-009 7.94143e-011 1.51029e-009 -2.90554 0.965183 -0.102902 -1.00249e-009 7.94138e-011 1.5103e-009 -10.2786 0.731801 -0.0259123 -1.00249e-009 7.94156e-011 1.51029e-009 -2.22167 -0.733487 0.20892 -2.03217e-016 0 -3.88251e-019 13.0634 -27.2035 5.94907 -0.259999 27.2858 -0.0667028 0.0993654 -13.356 -0.835278 2.03217e-016 0 3.88251e-019 3.13612 -27.0109 2.9636 -0.539039 48.7511 -0.763514 -0.31009 8.29356 10.1947 
159.14 77.0529 11.8089 18.2581 24.1176 -84.3077 15.5692 6.01314 4.87598 -0.365705 -14.1746 1.5243 -2.22501 -2.32727 -0.104017 -12.4164 4.31196 0.239262 -0 0 0 -0 0 0 -3.98021e-014 -7.43032e-013 8.14291e-014 48.3538 38.8733 -2.78586 -19.2973 -13.4265 34.9312 -0.0400397 -6.39979 -0.902376 7.32627e-010 -1.17901e-010 -1.06219e-009 1.27705e-009 -2.03514e-010 -1.8303e-009 7.32628e-010 -1.17904e-010 -1.06221e-009 7.73091 5.47488 0.417314 7.32628e-010 -1.17902e-010 -1.06219e-009 2.90554 0.965183 0.102902 7.32632e-010 -1.17898e-010 -1.0622e-009 10.2786 0.731801 0.0259123 7.32623e-010 -1.17901e-010 -1.06219e-009 2.22167 -0.733487 -0.20892 -3.98046e-014 -7.42999e-013 8.12921e-014 -73.5712 41.6802 22.3347 28.5892 -32.2951 -54.5657 0.0391791 5.85058 -0.824866 -1.41084e-009 7.78189e-011 2.10239e-009 -2.43108e-009 1.35109e-010 3.63889e-009 -1.41084e-009 7.78209e-011 2.1024e-009 -7.73091 5.47488 -0.417314 -1.41084e-009 7.782e-011 2.10239e-009 -2.90554 0.965183 -0.102902 -1.41084e-009 7.78192e-011 2.10239e-009 -10.2786 0.731801 -0.0259123 -1.41084e-009 7.78206e-011 2.10239e-009 -2.22167 -0.733487 0.20892 -2.03217e-016 0 -3.88251e-019 20.621 -36.9142 9.63407 -0.339992 38.2255 -0.0788375 0.113787 -20.2008 -1.28977 2.03217e-016 0 3.88251e-019 5.56278 -38.4217 4.75982 0.598115 71.3555 -2.36993 -1.08686 9.9012 14.7992 
155.445 77.187 11.4266 23.7358 10.4388 -90.8812 18.3521 7.29092 6.2076 0.00668622 -17.4704 1.99961 -2.74883 -2.82527 -0.252207 -14.9702 5.13245 0.0474683 -0 0 0 -0 0 0 -4.77206e-014 -7.90187e-013 8.11538e-014 59.0318 46.6182 -3.36793 -22.1523 -15.9879 44.2033 -0.0795241 -8.01907 -1.1345 6.91042e-010 -1.13501e-010 -9.74503e-010 1.20468e-009 -1.95855e-010 -1.67939e-009 6.91042e-010 -1.13505e-010 -9.74516e-010 7.73091 5.47488 0.417314 6.91043e-010 -1.13503e-010 -9.74503e-010 2.90554 0.965183 0.102902 6.91046e-010 -1.13498e-010 -9.74506e-010 10.2786 0.731801 0.0259123 6.91038e-010 -1.13502e-010 -9.745e-010 2.22167 -0.733487 -0.20892 -4.76994e-014 -7.90151e-013 8.10047e-014 -97.1145 47.8389 33.6926 28.0182 -30.7213 -68.4013 0.0510259 6.43301 -0.907957 -1.51893e-009 -6.07677e-011 2.14938e-009 -2.61636e-009 -1.04615e-010 3.72059e-009 -1.51893e-009 -6.07657e-011 2.14939e-009 -7.73091 5.47488 -0.417314 -1.51893e-009 -6.07668e-011 2.14938e-009 -2.90554 0.965183 -0.102902 -1.51893e-009 -6.07679e-011 2.14938e-009 -10.2786 0.731801 -0.0259123 -1.51893e-009 -6.07665e-011 2.14938e-009 -2.22167 -0.733487 0.20892 -2.03217e-016 0 -3.88251e-019 26.4092 -42.1649 12.4043 -0.362985 45.1512 0.045032 0.0141982 -24.7379 -1.61115 2.03217e-016 0 3.88251e-019 7.64781 -47.4863 6.04047 15.1273 86.8454 -17.2517 -1.34765 9.2218 17.2747 
